<svg id="Layer_1" data-name="Layer 1" xmlns="http://www.w3.org/2000/svg" viewBox="0 0 900 353.55"><defs><style>.cls-1{fill:#fff;}</style></defs><title>zook_logo</title><path class="cls-1" d="M437.13,136.68c0,65-52.58,117.73-117.43,117.73S202.27,201.71,202.27,136.68,254.85,19,319.7,19,437.13,71.66,437.13,136.68ZM319.7,96.35a40.33,40.33,0,1,0,40.23,40.33A40.28,40.28,0,0,0,319.7,96.35Zm358.61,40.33c0,65-52.58,117.73-117.43,117.73S443.45,201.71,443.45,136.68,496,19,560.88,19,678.31,71.66,678.31,136.68ZM560.88,96.35a40.33,40.33,0,1,0,40.23,40.33A40.28,40.28,0,0,0,560.88,96.35ZM22.36,245.11H202.27V173.63H138.21L202.27,28.29H22.36V99.78H87.52ZM825.9,121.33l53.16-93H806L758,107V28.29H684.88V245.11H758V149.52l48,95.59h73.11L825.9,127.54Z"/><path class="cls-1" d="M22.36,325.13V275.26h10V297.4l20.3-22.14h13.5L47.47,294.68l19.76,30.45h-13l-13.68-23.4-8.14,8.33v15.07Z"/><path class="cls-1" d="M71.87,325.13V275.26h10v49.87Z"/><path class="cls-1" d="M101.86,325.13V283.7H87.09v-8.44h39.53v8.44H111.9v41.43Z"/><path class="cls-1" d="M162.86,306.79l9.74,3.1q-2.24,8.16-7.45,12.13t-13.22,4a21.38,21.38,0,0,1-16.29-6.78q-6.37-6.79-6.38-18.56,0-12.45,6.42-19.34t16.87-6.89q9.12,0,14.83,5.41a19.7,19.7,0,0,1,5.09,9.18l-9.95,2.38A10.28,10.28,0,0,0,152,283a11.29,11.29,0,0,0-9,4q-3.45,4-3.45,12.89,0,9.46,3.39,13.47a11,11,0,0,0,8.82,4,10,10,0,0,0,6.89-2.55Q161.61,312.28,162.86,306.79Z"/><path class="cls-1" d="M179.76,325.13V275.26h10v19.63h19.68V275.26h10v49.87h-10v-21.8H189.81v21.8Z"/><path class="cls-1" d="M229.28,325.13V275.26h36.89v8.44H239.32v11.06h25v8.4h-25v13.57h27.8v8.41Z"/><path class="cls-1" d="M275,325.13V275.26h9.77l20.36,33.3v-33.3h9.33v49.87H304.35L284.3,292.61v32.52Z"/><path class="cls-1" d="M321.49,308.91l9.77-1q.88,4.93,3.58,7.24a10.79,10.79,0,0,0,7.28,2.31q4.86,0,7.31-2.06a6.13,6.13,0,0,0,2.46-4.81,4.55,4.55,0,0,0-1-3,8.27,8.27,0,0,0-3.62-2.16q-1.76-.61-8-2.18-8.07-2-11.33-4.94a13.12,13.12,0,0,1-2.43-17.16,13.51,13.51,0,0,1,6.21-5.05,24.84,24.84,0,0,1,9.79-1.74q9.37,0,14.1,4.12a14.54,14.54,0,0,1,5,11l-10,.44q-.64-3.85-2.77-5.53t-6.36-1.69a11.46,11.46,0,0,0-6.86,1.81,3.63,3.63,0,0,0-1.59,3.09,3.84,3.84,0,0,0,1.49,3q1.9,1.59,9.23,3.33a49,49,0,0,1,10.84,3.59,14,14,0,0,1,5.5,5.07,15.73,15.73,0,0,1-.39,16,14.23,14.23,0,0,1-6.72,5.56A28.1,28.1,0,0,1,342,326q-9.44,0-14.49-4.37T321.49,308.91Z"/><path class="cls-1" d="M369.41,325.13v-9.56h9.53v9.56Z"/><path class="cls-1" d="M418.14,306.79l9.74,3.1q-2.24,8.16-7.45,12.13t-13.22,4a21.38,21.38,0,0,1-16.29-6.78q-6.37-6.79-6.38-18.56,0-12.45,6.42-19.34t16.87-6.89q9.12,0,14.83,5.41a19.7,19.7,0,0,1,5.09,9.18l-9.95,2.38A10.28,10.28,0,0,0,407.31,283a11.29,11.29,0,0,0-9,4q-3.45,4-3.45,12.89,0,9.46,3.39,13.47a11,11,0,0,0,8.82,4,10,10,0,0,0,6.89-2.55Q416.89,312.28,418.14,306.79Z"/><path class="cls-1" d="M432.82,300.5a31.81,31.81,0,0,1,2.28-12.79,23.45,23.45,0,0,1,4.63-6.83,19.35,19.35,0,0,1,6.43-4.49,27.19,27.19,0,0,1,10.72-2q11,0,17.59,6.84t6.6,19q0,12.08-6.55,18.9T457,326q-11.1,0-17.65-6.78T432.82,300.5Zm10.35-.34q0,8.47,3.9,12.84a13.4,13.4,0,0,0,19.77,0q3.85-4.33,3.85-13t-3.75-12.79a13.87,13.87,0,0,0-20,.05Q443.18,291.56,443.18,300.16Z"/><path class="cls-1" d="M488.35,325.13V275.26h15l9,34,8.92-34H536.4v49.87h-9.33V285.88l-9.87,39.26h-9.67l-9.84-39.26v39.26Z"/></svg>